<!DOCTYPE svg PUBLIC "-//W3C//DTD SVG 1.1//EN" "http://www.w3.org/Graphics/SVG/1.1/DTD/svg11.dtd">
<!-- Uploaded to: SVG Repo, www.svgrepo.com, Transformed by: SVG Repo Mixer Tools -->
<svg fill="#84a01c" height="198px" width="198px" version="1.1" id="Layer_1" xmlns="http://www.w3.org/2000/svg" xmlns:xlink="http://www.w3.org/1999/xlink" viewBox="-49.02 -49.02 588.24 588.24" xml:space="preserve" stroke="#84a01c" stroke-width="9.804" transform="matrix(-1, 0, 0, -1, 0, 0)rotate(-45)">
<g id="SVGRepo_bgCarrier" stroke-width="0" transform="translate(2.4509999999999934,2.4509999999999934), scale(0.99)"/>
<g id="SVGRepo_tracerCarrier" stroke-linecap="round" stroke-linejoin="round" stroke="#5c731c" stroke-width="35.294399999999996"> <g> <path d="M469.2,224.85h-2.6v-68.7c0-26-21.8-47.9-47.9-47.9H401c-26,0-47.9,21.8-47.9,47.9v68.7H136.8v-68.7 c0-26-21.8-47.9-47.9-47.9H71.3c-26,0-47.9,21.8-47.9,47.9v68.7h-2.6c-11.4,0-20.8,9.4-20.8,20.8c0,11.4,9.4,20.8,20.8,20.8h2.6 v67.6c0,26,21.8,47.9,47.9,47.9H89c26,0,47.9-20.8,47.9-47.9v-67.6h216.4v67.6c0,26,21.8,47.9,47.9,47.9h17.7 c26,0,47.9-20.8,47.9-47.9v-67.6h2.6c11.4,0,20.8-9.4,20.8-20.8C490.2,234.25,480.6,224.85,469.2,224.85z M96.2,335.15 c0,4.2-3.1,7.3-7.3,7.3H71.3c-4.2,0-7.3-3.1-7.3-7.3v-177.9c0-4.2,3.1-7.3,7.3-7.3v-1H89c4.2,0,7.3,3.1,7.3,7.3v178.9H96.2z M426,335.15c0,4.2-3.1,7.3-7.3,7.3H401c-4.2,0-7.3-3.1-7.3-7.3v-177.9c0-4.2,3.1-7.3,7.3-7.3v-1h17.7c4.2,0,7.3,3.1,7.3,7.3 V335.15z"/> </g> </g>
<g id="SVGRepo_iconCarrier"> <g> <path d="M469.2,224.85h-2.6v-68.7c0-26-21.8-47.9-47.9-47.9H401c-26,0-47.9,21.8-47.9,47.9v68.7H136.8v-68.7 c0-26-21.8-47.9-47.9-47.9H71.3c-26,0-47.9,21.8-47.9,47.9v68.7h-2.6c-11.4,0-20.8,9.4-20.8,20.8c0,11.4,9.4,20.8,20.8,20.8h2.6 v67.6c0,26,21.8,47.9,47.9,47.9H89c26,0,47.9-20.8,47.9-47.9v-67.6h216.4v67.6c0,26,21.8,47.9,47.9,47.9h17.7 c26,0,47.9-20.8,47.9-47.9v-67.6h2.6c11.4,0,20.8-9.4,20.8-20.8C490.2,234.25,480.6,224.85,469.2,224.85z M96.2,335.15 c0,4.2-3.1,7.3-7.3,7.3H71.3c-4.2,0-7.3-3.1-7.3-7.3v-177.9c0-4.2,3.1-7.3,7.3-7.3v-1H89c4.2,0,7.3,3.1,7.3,7.3v178.9H96.2z M426,335.15c0,4.2-3.1,7.3-7.3,7.3H401c-4.2,0-7.3-3.1-7.3-7.3v-177.9c0-4.2,3.1-7.3,7.3-7.3v-1h17.7c4.2,0,7.3,3.1,7.3,7.3 V335.15z"/> </g> </g>
</svg>